<svg xmlns="http://www.w3.org/2000/svg" width="12" height="12" fill="none" viewBox="0 0 12 12">
  <g clip-path="url(#a)">
    <path fill="#EFE2F9" d="M0 0h12v12H0z"/>
    <path fill="#9251F7" d="M5.194 2.729A3.15 3.15 0 0 0 2.73 5.183c-.457 2.313 1.63 4.038 3.202 3.794.51-.08.76-.675.526-1.134a.837.837 0 0 1 .753-1.218h.986A.81.81 0 0 0 9 5.818a3.17 3.17 0 0 0-3.806-3.089Zm-1.34 3.896a.395.395 0 1 1 0-.79.395.395 0 0 1 0 .79Zm.396-1.583a.395.395 0 1 1-.001-.79.395.395 0 0 1 0 .79Zm1.583-.792a.395.395 0 1 1 0-.79.395.395 0 0 1 0 .79Zm1.584.792a.395.395 0 1 1-.001-.79.395.395 0 0 1 0 .79Z"/>
  </g>
  <defs>
    <clipPath id="a">
      <rect width="12" height="12" fill="#fff" rx="6"/>
    </clipPath>
  </defs>
</svg>
